When a cruise ship full of Caribbean tourists turn into zombies two metal fans must battle against zombie Armageddon armed only with a baseball bat, booze...and bagpipes.
 
http://www.imdb.com/title/tt1696198/

Format : AVI
Format/Info : Audio Video Interleave
File size : 701 MiB
Duration : 1h 13mn
Overall bit rate : 1 338 Kbps
Writing application : VirtualDubMod 1.5.10.2 (build 2540/release)
Writing library : VirtualDubMod build 2540/release

Video
ID : 0
Format : MPEG-4 Visual
Format profile : Advanced Simple@L5
Format settings, BVOP : Yes
Format settings, QPel : No
Format settings, GMC : No warppoints
Format settings, Matrix : Default (H.263)
Codec ID : XVID
Codec ID/Hint : XviD
Duration : 1h 13mn
Bit rate : 924 Kbps
Width : 640 pixels
Height : 352 pixels
Display aspect ratio : 16:9
Frame rate : 23.976 fps
Color space : YUV
Chroma subsampling : 4:2:0
Bit depth : 8 bits
Scan type : Progressive
Bits/(Pixel*Frame) : 0.171
Stream size : 484 MiB (69%)
Writing library : XviD 1.2.1 (UTC 2008-12-04)

Audio
ID : 1
Format : AC-3
Format/Info : Audio Coding 3
Mode extension : CM (complete main)
Codec ID : 2000
Duration : 1h 6mn
Bit rate mode : Constant
Bit rate : 448 Kbps
Channel(s) : 6 channels
Channel positions : Front: L C R, Side: L R, LFE
Sampling rate : 48.0 KHz
Bit depth : 16 bits
Video delay : 16ms
Stream size : 212 MiB (30%)
Alignment : Split accross interleaves
Interleave, duration : 46 ms (1.11 video frame)
Interleave, preload duration : 500 ms